<svg width="96" height="32" viewBox="0 0 96 32" fill="none" xmlns="http://www.w3.org/2000/svg">
<path fill-rule="evenodd" clip-rule="evenodd" d="M72.4688 13.2505V15.2089H76.8494V31.6498H79.0263V15.2089H83.4069V13.2505H72.4688Z" fill="white"/>
<path fill-rule="evenodd" clip-rule="evenodd" d="M60.8477 13.2505V31.6498H63.0797V23.2086H70.2233V21.2502H63.0797V15.2089H70.4186V13.2505H60.8477Z" fill="white"/>
<path fill-rule="evenodd" clip-rule="evenodd" d="M55.3789 31.6498H57.4298V13.2505H55.3789V31.6498Z" fill="white"/>
<path fill-rule="evenodd" clip-rule="evenodd" d="M49.8511 13.2505V21.2224H42.4773V13.2505H40.3398V31.6498H42.4773V23.1535H49.8511V31.6498H51.9617V13.2505H49.8511Z" fill="white"/>
<path fill-rule="evenodd" clip-rule="evenodd" d="M26.6641 29.4096L27.8579 27.7831C28.7811 28.877 30.301 29.7567 32.0924 29.7567C34.3729 29.7567 35.4045 28.3429 35.4045 26.823C35.4045 22.5038 27.2062 23.6502 27.2062 17.9168C27.2062 15.1969 29.4051 13.2505 32.4181 13.2505C34.4271 13.2505 36.0827 13.9172 37.2501 15.1436L36.1366 16.744C35.1326 15.6505 33.8031 15.1436 32.3639 15.1436C30.6809 15.1436 29.4051 16.2103 29.4051 17.8107C29.4051 21.5705 37.6023 20.7436 37.6023 26.69C37.6023 29.3031 35.8651 31.6498 32.0924 31.6498C29.7312 31.6498 27.9121 30.7701 26.6641 29.4096Z" fill="white"/>
<path fill-rule="evenodd" clip-rule="evenodd" d="M21.7494 15.4036H10.9414V13.2505H24.6142V14.8164L16.404 31.6498H13.6263L21.7494 15.4036Z" fill="white"/>
<path fill-rule="evenodd" clip-rule="evenodd" d="M18.3077 2.96997C18.3232 2.90497 18.3375 2.89753 18.3375 2.82469C18.3375 2.72639 18.3232 2.60578 18.2958 2.60578H19.9295C20.5504 2.60578 21.0546 2.00035 21.0546 1.42391V1.20813C21.0546 0.631685 20.5504 0.302734 19.9295 0.302734H12.8647C12.2431 0.302734 11.7388 0.631685 11.7388 1.20813V1.42391C11.7388 2.00035 12.2431 2.60578 12.8647 2.60578H14.2648C14.2374 2.60578 14.2231 2.72639 14.2231 2.82469C14.2231 2.86659 14.2286 2.89714 14.2358 2.92768C10.9077 3.3232 7.62844 4.80975 5.02716 7.14804C1.78795 10.06 0.00390625 13.8676 0.00390625 17.8706C0.00390625 23.9899 3.83819 29.2684 9.33632 31.6497L10.4332 29.5593C5.69761 27.5719 2.38422 23.0822 2.38422 17.8706C2.38422 10.6001 9.57474 5.16728 16.0044 5.16728C19.555 5.16728 22.985 6.43923 25.5927 8.42076L26.6658 6.27123C24.293 4.5552 21.3862 3.37176 18.3077 2.96997Z" fill="white"/>
<path fill-rule="evenodd" clip-rule="evenodd" d="M84.0898 29.4096L85.2837 27.7831C86.2069 28.877 87.7268 29.7567 89.5182 29.7567C91.7987 29.7567 92.8303 28.3429 92.8303 26.823C92.8303 22.5038 84.632 23.6502 84.632 17.9168C84.632 15.1969 86.8309 13.2505 89.8439 13.2505C91.8529 13.2505 93.5085 13.9172 94.6759 15.1436L93.5623 16.744C92.5584 15.6505 91.2288 15.1436 89.7896 15.1436C88.1067 15.1436 86.8309 16.2103 86.8309 17.8107C86.8309 21.5705 95.0281 20.7436 95.0281 26.69C95.0281 29.3031 93.2909 31.6498 89.5182 31.6498C87.157 31.6498 85.3379 30.7701 84.0898 29.4096Z" fill="white"/>
</svg>
